<svg width="151" height="183" viewBox="0 0 151 183" fill="none" xmlns="http://www.w3.org/2000/svg">
<path d="M110.757 2.42038C123.375 2.42038 135.995 2.41854 148.613 2.42222C148.62 5.26383 148.598 8.10729 148.626 10.9507C145.42 11.0906 142.142 11.4495 139.19 12.7912C136.196 14.1365 133.685 16.5843 132.393 19.6154C117.05 55.684 101.717 91.7563 86.3901 127.832C86.1251 128.425 85.9116 129.038 85.6024 129.61C80.1143 129.546 74.6243 129.601 69.1362 129.581C66.7142 124.768 64.3308 119.935 61.8886 115.133C59.0893 122.635 56.2734 130.129 53.4742 137.629C71.5784 137.631 89.6826 137.629 107.787 137.631C111.101 137.675 114.515 137.537 117.617 136.241C122.77 134.171 126.872 130.17 130.211 125.832C134.241 120.575 137.3 114.659 140.026 108.646C143.082 108.62 146.138 108.655 149.193 108.65C143.399 121.025 137.576 133.388 131.731 145.74C90.0121 145.741 48.2952 145.74 6.57653 145.74C7.59244 143.088 8.55867 140.413 9.6482 137.789C9.71445 137.518 10.0512 137.586 10.2555 137.561C15.4639 137.522 20.7073 137.32 25.8181 136.236C28.4776 135.612 31.229 134.78 33.2755 132.881C34.3577 131.848 34.6945 130.341 35.0534 128.949C39.9802 115.765 44.9144 102.582 49.8449 89.3987C39.4244 67.1959 28.9689 45.0059 18.543 22.8049C17.7037 20.8633 16.5958 18.94 14.8529 17.6756C11.2457 14.9739 6.55813 14.6316 2.21473 14.4586C2.21105 11.2765 2.21473 8.09624 2.21289 4.91415C16.8608 4.90863 31.5069 4.91047 46.1548 4.91231C46.1566 8.0944 46.1585 11.2765 46.153 14.4586C44.2444 14.58 42.2181 14.5488 40.49 15.4929C39.6324 15.8978 39.1281 16.9174 39.3489 17.845C39.6195 19.3633 40.8194 20.4473 41.4268 21.8184C47.6124 35.1412 53.7981 48.4659 60.0021 61.7832C63.1106 53.0909 66.2191 44.4004 69.3404 35.7136C69.7987 34.5063 69.9607 33.1113 69.438 31.8966C69.0276 30.9377 68.0963 30.3451 67.1779 29.9457C65.3927 29.2096 63.4308 29.2169 61.5389 29.0807C62.5051 26.3956 63.4769 23.7104 64.478 21.0399C64.7099 20.8909 65.032 21.005 65.2989 20.9682C80.1603 20.9774 95.0235 20.9682 109.887 20.9737C108.86 23.6717 107.838 26.3698 106.822 29.0715C103.243 29.2372 99.5528 29.3274 96.1959 30.7261C94.6573 31.3702 93.2015 32.3548 92.2923 33.7793C91.6611 34.8229 91.2691 35.9878 90.8458 37.1252C84.6362 54.0608 78.3696 70.9743 72.2299 87.9356C75.631 95.623 79.1757 103.244 82.6449 110.9C95.2425 81.1518 107.837 51.3995 120.449 21.6565C121.299 19.8676 122.683 18.2351 122.792 16.1775C122.897 14.5672 121.702 13.1776 120.318 12.5169C117.335 11.1403 113.982 11.0722 110.757 10.9563C110.754 8.11097 110.754 5.26567 110.757 2.42038Z" fill="black"/>
<path d="M133.665 162.6C137.642 166.718 141.588 170.865 145.527 175.019C145.521 171.158 145.543 167.295 145.54 163.433C146.221 163.435 146.902 163.428 147.584 163.419C147.586 168.931 147.586 174.445 147.584 179.957C143.603 175.858 139.682 171.704 135.721 167.585C135.726 171.47 135.712 175.357 135.71 179.244C135.027 179.25 134.346 179.248 133.665 179.248C133.663 173.697 133.662 168.148 133.665 162.6Z" fill="black"/>
<path d="M17.8858 163.166C22.2679 162.493 26.9039 165.923 27.2941 170.392C27.6622 172.948 26.6702 175.613 24.7985 177.375C21.7213 180.385 16.1871 180.33 13.2001 177.213C11.5861 175.648 10.6659 173.394 10.7634 171.143C10.8076 167.226 14.0449 163.728 17.8858 163.166ZM17.8877 165.191C15.3368 165.607 13.2608 167.847 12.9038 170.385C12.4179 173.269 14.1976 176.372 16.9822 177.314C19.4189 178.234 22.3838 177.367 23.9482 175.287C25.9708 172.75 25.6285 168.655 23.1402 166.547C21.7415 165.276 19.7189 164.856 17.8877 165.191Z" fill="black"/>
<path d="M49.5299 164.019C51.7753 162.333 55.4432 163.03 56.7389 165.577C56.1978 165.883 55.6567 166.19 55.1156 166.496C54.142 164.974 51.7697 164.602 50.4612 165.894C49.9072 166.299 49.968 167.041 50.0269 167.65C50.1851 168.445 51.0317 168.782 51.6556 169.155C53.2642 170.002 55.1966 170.49 56.3266 172.024C57.5873 173.738 57.3793 176.289 56.0045 177.875C54.5672 179.614 51.9391 180.038 49.9293 179.127C48.387 178.365 47.4337 176.754 47.1245 175.103C47.8147 174.94 48.5085 174.789 49.2005 174.634C49.2704 176.14 50.4391 177.662 52.0292 177.689C54.1752 177.923 55.8812 175.133 54.6316 173.353C53.2973 171.537 50.7244 171.511 49.1895 169.941C47.3822 168.463 47.5644 165.277 49.5299 164.019Z" fill="black"/>
<path d="M122.792 163.155C125.663 162.797 128.63 164.122 130.393 166.393C132.935 169.573 132.528 174.647 129.511 177.382C127.789 179.084 125.256 179.786 122.879 179.533C120.528 179.379 118.329 178.061 116.973 176.154C115.511 174.121 115.132 171.402 115.824 169.012C116.728 165.914 119.61 163.56 122.792 163.155ZM122.441 165.219C119.275 165.758 117.011 169.129 117.567 172.266C117.919 175.282 120.78 177.737 123.808 177.68C125.873 177.715 127.842 176.545 128.956 174.833C130.647 172.381 130.202 168.76 128.023 166.742C126.596 165.298 124.393 164.81 122.441 165.219Z" fill="black"/>
<path d="M3.8584 163.422C4.51175 163.419 5.1651 163.419 5.81845 163.422C5.82029 168.095 5.81661 172.77 5.82029 177.443C7.44354 177.446 9.06495 177.443 10.6882 177.445C10.6919 178.045 10.6919 178.645 10.69 179.246C8.4116 179.248 6.135 179.25 3.8584 179.246C3.86024 173.972 3.86024 168.697 3.8584 163.422Z" fill="black"/>
<path d="M28.879 163.435C29.571 163.43 30.263 163.431 30.9568 163.433C30.9623 166.547 30.9476 169.663 30.9642 172.777C30.9955 174.146 31.1648 175.652 32.1329 176.706C33.6733 178.217 36.6989 178.002 37.7737 176.044C38.3167 175.124 38.475 174.034 38.4602 172.981C38.4473 169.799 38.4473 166.617 38.4492 163.433C39.1412 163.43 39.8332 163.431 40.5252 163.433C40.5252 166.682 40.5325 169.93 40.5233 173.178C40.527 174.652 40.2712 176.211 39.3289 177.397C37.3026 180.203 32.6058 180.363 30.3863 177.711C29.3317 176.607 28.8974 175.05 28.8827 173.552C28.8735 170.18 28.8808 166.807 28.879 163.435Z" fill="black"/>
<path d="M43.0814 163.424C43.7624 163.417 44.4452 163.419 45.128 163.422C45.128 168.697 45.1298 173.972 45.1261 179.248C44.4452 179.248 43.7624 179.25 43.0796 179.245C43.0833 173.972 43.0833 168.697 43.0814 163.424Z" fill="black"/>
<path d="M63.5742 163.437C64.3233 163.417 65.076 163.417 65.8269 163.42C67.3986 167.267 68.9464 171.123 70.4905 174.98C72.031 171.135 73.6156 167.309 75.121 163.452C75.8922 163.387 76.6651 163.431 77.4381 163.42C75.1394 169.017 72.8315 174.61 70.5126 180.198C68.1532 174.63 65.8784 169.026 63.5742 163.437Z" fill="black"/>
<path d="M78.3752 163.419C79.0561 163.428 79.7371 163.435 80.4199 163.433C80.4438 166.5 80.4162 169.568 80.442 172.634C80.4898 174.089 80.6021 175.74 81.7137 176.819C82.9965 177.918 85.0393 177.986 86.4086 177.008C87.2055 176.442 87.6435 175.499 87.8165 174.561C88.0889 172.945 87.9914 171.301 88.0098 169.671C88.0208 167.593 88.0227 165.515 88.019 163.437C88.6742 163.43 89.3312 163.432 89.9882 163.433C90.0177 166.316 89.9938 169.196 90.0011 172.078C90.0471 173.865 89.9901 175.805 88.9024 177.314C86.9975 180.062 82.6137 180.358 80.2027 178.126C78.9972 177.01 78.3917 175.365 78.3825 173.742C78.3641 170.3 78.3788 166.86 78.3752 163.419Z" fill="black"/>
<path d="M92.5574 163.433C93.2678 163.435 93.9782 163.428 94.6904 163.42C94.6904 168.695 94.6886 173.97 94.6904 179.246C93.9745 179.248 93.2604 179.248 92.5463 179.246C92.539 173.975 92.5629 168.704 92.5574 163.433Z" fill="black"/>
<path d="M95.9677 163.433C102.348 163.439 108.727 163.422 115.108 163.424C115.106 164.055 115.106 164.687 115.108 165.32C113.884 165.325 112.662 165.32 111.44 165.322C111.435 169.963 111.438 174.605 111.438 179.246C110.726 179.248 110.016 179.248 109.303 179.246C109.3 174.605 109.316 169.963 109.296 165.322C106.791 165.325 104.286 165.32 101.782 165.324C101.778 169.965 101.782 174.605 101.78 179.246C101.126 179.248 100.473 179.248 99.8215 179.246C99.8197 174.605 99.8234 169.965 99.8197 165.324C98.5351 165.32 97.2523 165.325 95.9677 165.32C95.9658 164.69 95.9658 164.061 95.9677 163.433Z" fill="black"/>
</svg>
